<svg xmlns="http://www.w3.org/2000/svg" xml:space="preserve" width="49" height="23" version="1.1" style="shape-rendering:geometricPrecision; text-rendering:geometricPrecision; image-rendering:optimizeQuality; fill-rule:evenodd; clip-rule:evenodd"
viewBox="0 0 3200 1500">
 <g id="ﾃ神x00a1_ﾃ神x00bb_ﾃ神x00be_ﾃ神x00b9__x0020_1">
  <g id="_1644885073792">
   <path fill="#000000" d="M599 842c-29,70 -51,156 -87,247 -17,42 -43,127 -79,255 -26,93 -45,140 -57,140 -9,0 -19,-18 -31,-54 -46,-145 -84,-252 -115,-320 -2,-8 -17,-41 -47,-99 -35,-71 -64,-124 -87,-158 -18,-27 -41,-52 -69,-75 -10,-7 -15,-14 -15,-19 0,-19 9,-51 28,-98 19,-47 33,-70 43,-70 9,0 27,22 55,66 23,35 51,89 89,157 4,7 16,35 37,80 23,47 37,88 51,120 6,17 59,171 64,171 7,0 28,-62 47,-114 35,-94 59,-160 75,-197 33,-81 58,-141 73,-167 8,-17 76,-141 107,-188 60,-89 142,-193 217,-269 46,-47 93,-82 109,-94 49,-36 129,-91 132,-90 7,5 -13,11 -6,34 3,11 -44,33 -90,77 -57,54 -59,56 -91,88 -80,77 -181,216 -233,315 -45,84 -84,174 -120,262z"/>
   <path fill="#FFFFFF" d="M599 842c-29,70 -51,156 -87,247 -17,42 -43,127 -79,255 -26,93 -45,140 -57,140 -9,0 -19,-18 -31,-54 -46,-145 -84,-252 -115,-320 -2,-8 -17,-41 -47,-99 -35,-71 -64,-124 -87,-158 -18,-27 -41,-52 -69,-75 -10,-7 -15,-14 -15,-19 0,-19 9,-51 28,-98 19,-47 33,-70 43,-70 9,0 27,22 55,66 23,35 51,89 89,157 4,7 16,35 37,80 23,47 37,88 51,120 6,17 59,171 64,171 7,0 28,-62 47,-114 35,-94 59,-160 75,-197 33,-81 58,-141 73,-167 8,-17 76,-141 107,-188 60,-89 142,-193 217,-269 46,-47 93,-82 109,-94 49,-36 129,-91 132,-90 7,5 -13,11 -6,34 3,11 -44,33 -90,77 -57,54 -59,56 -91,88 -80,77 -181,216 -233,315 -45,84 -84,174 -120,262z"/>
   <path fill="#ffffff" d="M1816 495l-3 -9c6,0 22,0 48,1 25,1 45,1 58,2 33,-1 57,-2 73,-3l-3 11c-1,0 -20,2 -55,7 -1,6 -1,14 -1,23 -1,9 -1,26 -1,52 -1,26 -1,43 -1,52 2,126 3,194 3,202 7,2 17,4 31,5 15,2 22,3 24,3l3 11c-8,-1 -23,-1 -46,-1 -23,-1 -39,-1 -50,-1 -9,0 -24,0 -45,1 -21,0 -33,0 -38,1l2 -11c2,0 6,-1 13,-2 7,0 14,-1 22,-2 8,-1 15,-2 20,-4 0,-3 1,-12 1,-28 0,-16 1,-35 1,-56 0,-21 0,-43 0,-66 0,-36 0,-70 0,-102 -1,-31 -1,-57 -2,-77 -3,-1 -21,-4 -54,-9zm-429 188c2,-2 4,-4 8,-7 4,-4 8,-7 12,-11 4,-3 9,-6 13,-10 11,11 30,30 57,57 27,28 51,51 72,71 21,19 40,37 59,53 19,16 33,25 42,29l17 -6c-10,-10 -24,-26 -43,-49 -19,-23 -40,-48 -62,-76 -23,-29 -42,-54 -58,-75 -17,-22 -28,-37 -32,-45 10,-9 23,-20 37,-32 14,-12 27,-23 39,-32 12,-10 23,-19 35,-28 12,-9 22,-16 29,-20 9,-2 19,-4 33,-7l4 -9c-7,0 -17,0 -31,1 -14,0 -24,0 -31,1 -40,-2 -64,-2 -73,-2 1,6 1,9 1,9 6,1 19,4 40,8 -3,5 -12,15 -27,29 -14,15 -32,32 -53,50 -21,19 -39,35 -55,49 -16,13 -27,23 -33,28l0 24 0 0zm-116 -188l-2 -9c9,0 24,0 43,1 20,0 35,0 45,1 10,-1 24,-1 44,-1 20,-1 35,-1 44,-1l-1 9c-4,1 -13,2 -29,4 -16,2 -25,4 -25,6 -1,11 -2,74 -3,188 1,83 2,129 3,139 5,3 25,6 59,9l1 12c-5,-1 -33,-2 -85,-3 -59,1 -91,2 -96,2l2 -11c4,0 11,-1 21,-2 9,-1 17,-2 22,-3 6,0 10,-1 12,-2 2,-38 2,-80 2,-127 0,-77 -1,-146 -3,-204 -8,-1 -27,-4 -54,-8l0 0zm-356 0l-3 -9c6,0 23,0 48,1 26,1 45,1 58,2 33,-1 57,-2 73,-3l-3 11c-1,0 -19,2 -55,7 0,6 -1,14 -1,23 0,9 -1,26 -1,52 0,26 -1,43 -1,52 2,126 3,194 3,202 7,2 17,4 31,5 15,2 23,3 24,3l3 11c-7,-1 -23,-1 -46,-1 -22,-1 -39,-1 -50,-1 -9,0 -24,0 -45,1 -20,0 -33,0 -38,1l2 -11c2,0 7,-1 14,-2 6,0 14,-1 22,-2 7,-1 14,-2 19,-4 1,-3 1,-12 1,-28 1,-16 1,-35 1,-56 1,-21 1,-43 1,-66 0,-36 -1,-70 -1,-102 -1,-31 -1,-57 -2,-77 -3,-1 -21,-4 -54,-9l0 0z"/>
   <path fill="#ffffff" d="M1816 495l-3 -9c6,0 22,0 48,1 25,1 45,1 58,2 33,-1 57,-2 73,-3l-3 11c-1,0 -20,2 -55,7 -1,6 -1,14 -1,23 -1,9 -1,26 -1,52 -1,26 -1,43 -1,52 2,126 3,194 3,202 7,2 17,4 31,5 15,2 22,3 24,3l3 11c-8,-1 -23,-1 -46,-1 -23,-1 -39,-1 -50,-1 -9,0 -24,0 -45,1 -21,0 -33,0 -38,1l2 -11c2,0 6,-1 13,-2 7,0 14,-1 22,-2 8,-1 15,-2 20,-4 0,-3 1,-12 1,-28 0,-16 1,-35 1,-56 0,-21 0,-43 0,-66 0,-36 0,-70 0,-102 -1,-31 -1,-57 -2,-77 -3,-1 -21,-4 -54,-9zm-429 188c2,-2 4,-4 8,-7 4,-4 8,-7 12,-11 4,-3 9,-6 13,-10 11,11 30,30 57,57 27,28 51,51 72,71 21,19 40,37 59,53 19,16 33,25 42,29l17 -6c-10,-10 -24,-26 -43,-49 -19,-23 -40,-48 -62,-76 -23,-29 -42,-54 -58,-75 -17,-22 -28,-37 -32,-45 10,-9 23,-20 37,-32 14,-12 27,-23 39,-32 12,-10 23,-19 35,-28 12,-9 22,-16 29,-20 9,-2 19,-4 33,-7l4 -9c-7,0 -17,0 -31,1 -14,0 -24,0 -31,1 -40,-2 -64,-2 -73,-2 1,6 1,9 1,9 6,1 19,4 40,8 -3,5 -12,15 -27,29 -14,15 -32,32 -53,50 -21,19 -39,35 -55,49 -16,13 -27,23 -33,28l0 24 0 0zm-116 -188l-2 -9c9,0 24,0 43,1 20,0 35,0 45,1 10,-1 24,-1 44,-1 20,-1 35,-1 44,-1l-1 9c-4,1 -13,2 -29,4 -16,2 -25,4 -25,6 -1,11 -2,74 -3,188 1,83 2,129 3,139 5,3 25,6 59,9l1 12c-5,-1 -33,-2 -85,-3 -59,1 -91,2 -96,2l2 -11c4,0 11,-1 21,-2 9,-1 17,-2 22,-3 6,0 10,-1 12,-2 2,-38 2,-80 2,-127 0,-77 -1,-146 -3,-204 -8,-1 -27,-4 -54,-8l0 0zm-356 0l-3 -9c6,0 23,0 48,1 26,1 45,1 58,2 33,-1 57,-2 73,-3l-3 11c-1,0 -19,2 -55,7 0,6 -1,14 -1,23 0,9 -1,26 -1,52 0,26 -1,43 -1,52 2,126 3,194 3,202 7,2 17,4 31,5 15,2 23,3 24,3l3 11c-7,-1 -23,-1 -46,-1 -22,-1 -39,-1 -50,-1 -9,0 -24,0 -45,1 -20,0 -33,0 -38,1l2 -11c2,0 7,-1 14,-2 6,0 14,-1 22,-2 7,-1 14,-2 19,-4 1,-3 1,-12 1,-28 1,-16 1,-35 1,-56 1,-21 1,-43 1,-66 0,-36 -1,-70 -1,-102 -1,-31 -1,-57 -2,-77 -3,-1 -21,-4 -54,-9l0 0z"/>
   <path fill="#ffffff" d="M607 370c-14,19 -82,117 -137,258 -10,25 -30,75 -52,152 -16,56 -27,84 -34,84 -5,0 -11,-11 -19,-32 -28,-88 -51,-152 -69,-193 -1,-5 -11,-25 -28,-60 -22,-43 -41,-71 -55,-92 -11,-17 -23,-35 -40,-49 -6,-4 -9,-8 -9,-11 0,-11 6,-31 17,-60 12,-28 20,-42 26,-42 5,0 16,13 33,40 14,22 30,55 53,96 22,38 37,81 54,122 16,37 25,92 37,94 8,2 14,-23 30,-60 68,-156 158,-280 266,-403 4,-4 117,-116 139,-132 10,-8 28,-23 42,-35 26,-22 51,-40 58,-47 3,-3 -6,16 -1,30 2,6 -45,43 -72,71 -17,18 -36,34 -54,51 -28,29 -55,60 -84,91 -35,39 -70,83 -101,127z"/>
   <path fill="#ffffff" d="M607 370c-14,19 -82,117 -137,258 -10,25 -30,75 -52,152 -16,56 -27,84 -34,84 -5,0 -11,-11 -19,-32 -28,-88 -51,-152 -69,-193 -1,-5 -11,-25 -28,-60 -22,-43 -41,-71 -55,-92 -11,-17 -23,-35 -40,-49 -6,-4 -9,-8 -9,-11 0,-11 6,-31 17,-60 12,-28 20,-42 26,-42 5,0 16,13 33,40 14,22 30,55 53,96 22,38 37,81 54,122 16,37 25,92 37,94 8,2 14,-23 30,-60 68,-156 158,-280 266,-403 4,-4 117,-116 139,-132 10,-8 28,-23 42,-35 26,-22 51,-40 58,-47 3,-3 -6,16 -1,30 2,6 -45,43 -72,71 -17,18 -36,34 -54,51 -28,29 -55,60 -84,91 -35,39 -70,83 -101,127z"/>
   <path fill="#ffffff" d="M2908 1280c2,-1 5,-4 8,-7 4,-3 8,-7 12,-10 5,-4 9,-7 14,-10 10,11 29,30 56,57 28,27 52,51 72,70 21,20 41,38 60,53 19,16 32,26 41,29l17 -6c-10,-9 -24,-26 -43,-48 -19,-23 -39,-49 -62,-77 -22,-28 -42,-53 -58,-75 -17,-22 -27,-36 -32,-44 11,-10 23,-20 37,-32 15,-12 28,-23 39,-33 12,-9 24,-18 36,-27 11,-9 21,-16 29,-21 8,-2 19,-4 32,-6l4 -10c-7,1 -17,1 -31,1 -13,1 -24,1 -31,1 -40,-1 -64,-2 -73,-2 1,6 1,10 1,10 6,1 20,3 40,7 -3,6 -11,15 -26,30 -15,15 -33,31 -54,50 -21,18 -39,34 -55,48 -16,14 -27,23 -33,28l0 24zm-116 -187l-2 -10c9,1 24,1 44,1 19,1 34,1 44,1 10,0 25,0 45,-1 20,0 34,0 43,-1l-1 10c-3,1 -13,2 -29,4 -16,2 -24,4 -25,5 0,12 -1,75 -3,188 1,84 2,130 3,139 6,3 25,7 60,10l1 11c-5,0 -34,-1 -85,-3 -60,2 -92,2 -97,2l2 -10c5,-1 12,-1 21,-2 9,-1 17,-2 23,-3 6,-1 10,-2 12,-3 1,-37 2,-79 2,-126 0,-78 -1,-146 -4,-205 -8,-1 -26,-3 -54,-7l0 0zm-413 -16c7,-1 16,-1 28,-1 30,0 58,4 83,13 25,9 46,21 63,37 18,16 31,34 40,55 10,21 14,44 14,69 0,19 -2,35 -5,48 -7,30 -20,56 -38,80 -19,23 -43,42 -73,55 -29,14 -63,22 -100,23 -39,0 -73,-5 -101,-17 -29,-12 -51,-27 -68,-45 -17,-19 -30,-38 -37,-58 -8,-20 -12,-40 -13,-58 1,-2 1,-4 1,-7 2,-25 7,-48 16,-70 9,-22 22,-42 38,-59 17,-18 38,-32 64,-44 25,-11 55,-18 88,-21l0 0zm-34 23c-19,5 -36,13 -50,23 -14,10 -26,21 -35,34 -8,14 -15,28 -19,43 -4,16 -7,32 -7,49 0,3 1,7 1,14 0,6 1,10 1,13 3,23 9,43 19,61 9,18 20,33 33,46 13,13 27,24 42,32 15,8 31,14 46,17 13,2 22,3 26,3 17,0 35,-3 52,-10 17,-6 33,-16 46,-29 14,-13 25,-29 33,-47 8,-19 12,-40 12,-63 0,-31 -7,-61 -21,-90 -13,-29 -32,-53 -57,-72 -25,-19 -53,-28 -84,-28 -15,0 -27,2 -38,4l0 0zm-710 80c5,-47 7,-91 7,-132 7,2 11,3 13,3 1,20 2,32 3,34 31,2 85,4 162,5 85,-1 144,-3 178,-5 0,0 2,-6 4,-15 2,-9 3,-15 4,-17 1,-1 3,-1 6,-2 3,0 5,0 7,0 -2,10 -4,23 -6,38 -2,14 -4,33 -7,57 -3,23 -4,36 -4,38 -5,-2 -9,-3 -12,-3 0,-3 0,-9 1,-19 0,-9 0,-17 0,-22l0 -11c-3,-4 -13,-8 -30,-11 -16,-4 -34,-6 -55,-8 -20,-2 -37,-3 -50,-3 -1,4 -1,11 -1,23 -1,12 -1,26 -1,44 -1,17 -1,38 -1,62 1,123 2,188 3,195 29,4 51,6 66,7l2 11c-9,-1 -39,-2 -91,-2 -21,0 -42,0 -63,1 -21,0 -37,1 -48,1l4 -10c3,-1 14,-2 32,-4 19,-2 30,-3 33,-4 2,-64 3,-123 3,-177 0,-68 -1,-117 -3,-147 -66,0 -111,7 -133,21 -2,3 -4,11 -7,24 -2,12 -4,21 -5,24 0,1 -1,1 -5,2 -3,1 -5,2 -6,2l0 0zm-181 4l-12 -5c0,-13 -1,-27 -2,-39 -6,-16 -16,-27 -29,-35 -13,-8 -27,-12 -42,-12 -15,0 -28,4 -40,12 -12,9 -18,19 -20,33 0,17 5,30 16,40 11,10 31,24 59,43 28,18 49,37 63,54 14,18 21,40 21,67l0 15c-2,23 -9,42 -22,56 -13,15 -28,26 -47,32 -19,7 -40,11 -61,11 -23,0 -46,-5 -68,-13 -1,2 -4,20 -11,54l-12 3c2,-9 4,-28 7,-57 2,-28 4,-58 4,-88 0,-2 0,-6 -1,-11 0,-5 0,-9 0,-11l12 3c0,2 0,4 -1,6 1,12 2,25 4,39 8,18 19,32 34,42 15,10 31,15 48,16 12,-1 24,-4 35,-9 11,-6 20,-14 27,-24 6,-9 10,-20 10,-33 0,-32 -22,-60 -66,-85 -17,-10 -32,-20 -44,-30 -12,-11 -22,-21 -29,-32 -7,-10 -11,-20 -14,-30 -3,-11 -5,-21 -5,-32 1,-15 5,-30 13,-43 8,-13 21,-24 37,-32 17,-8 37,-12 60,-12 20,0 42,3 67,9 3,-11 6,-25 9,-42l12 -1c-8,64 -12,111 -12,141l0 0zm-626 -107c7,-1 16,-1 28,-1 30,0 58,4 83,13 25,9 46,21 63,37 18,16 31,34 40,55 10,21 14,44 14,69 0,19 -1,35 -5,48 -7,30 -20,56 -38,80 -19,23 -43,42 -73,55 -29,14 -63,22 -100,23 -39,0 -73,-5 -101,-17 -29,-12 -51,-27 -68,-45 -17,-19 -30,-38 -37,-58 -8,-20 -12,-40 -13,-58 1,-2 1,-4 1,-7 2,-25 7,-48 16,-70 9,-22 22,-42 38,-59 17,-18 38,-32 64,-44 25,-11 55,-18 88,-21l0 0zm-34 23c-19,5 -36,13 -50,23 -14,10 -26,21 -35,34 -8,14 -15,28 -19,43 -4,16 -7,32 -7,49 0,3 1,7 1,14 0,6 1,10 1,13 3,23 9,43 19,61 9,18 20,33 33,46 13,13 27,24 42,32 15,8 31,14 46,17 13,2 22,3 26,3 17,0 35,-3 52,-10 17,-6 33,-16 46,-29 14,-13 25,-29 33,-47 8,-19 12,-40 12,-63 0,-31 -7,-61 -21,-90 -13,-29 -32,-53 -57,-72 -25,-19 -53,-28 -84,-28 -15,0 -27,2 -38,4l0 0z"/>
   <path fill="#ffffff" d="M2908 1280c2,-1 5,-4 8,-7 4,-3 8,-7 12,-10 5,-4 9,-7 14,-10 10,11 29,30 56,57 28,27 52,51 72,70 21,20 41,38 60,53 19,16 32,26 41,29l17 -6c-10,-9 -24,-26 -43,-48 -19,-23 -39,-49 -62,-77 -22,-28 -42,-53 -58,-75 -17,-22 -27,-36 -32,-44 11,-10 23,-20 37,-32 15,-12 28,-23 39,-33 12,-9 24,-18 36,-27 11,-9 21,-16 29,-21 8,-2 19,-4 32,-6l4 -10c-7,1 -17,1 -31,1 -13,1 -24,1 -31,1 -40,-1 -64,-2 -73,-2 1,6 1,10 1,10 6,1 20,3 40,7 -3,6 -11,15 -26,30 -15,15 -33,31 -54,50 -21,18 -39,34 -55,48 -16,14 -27,23 -33,28l0 24zm-116 -187l-2 -10c9,1 24,1 44,1 19,1 34,1 44,1 10,0 25,0 45,-1 20,0 34,0 43,-1l-1 10c-3,1 -13,2 -29,4 -16,2 -24,4 -25,5 0,12 -1,75 -3,188 1,84 2,130 3,139 6,3 25,7 60,10l1 11c-5,0 -34,-1 -85,-3 -60,2 -92,2 -97,2l2 -10c5,-1 12,-1 21,-2 9,-1 17,-2 23,-3 6,-1 10,-2 12,-3 1,-37 2,-79 2,-126 0,-78 -1,-146 -4,-205 -8,-1 -26,-3 -54,-7l0 0zm-413 -16c7,-1 16,-1 28,-1 30,0 58,4 83,13 25,9 46,21 63,37 18,16 31,34 40,55 10,21 14,44 14,69 0,19 -2,35 -5,48 -7,30 -20,56 -38,80 -19,23 -43,42 -73,55 -29,14 -63,22 -100,23 -39,0 -73,-5 -101,-17 -29,-12 -51,-27 -68,-45 -17,-19 -30,-38 -37,-58 -8,-20 -12,-40 -13,-58 1,-2 1,-4 1,-7 2,-25 7,-48 16,-70 9,-22 22,-42 38,-59 17,-18 38,-32 64,-44 25,-11 55,-18 88,-21l0 0zm-34 23c-19,5 -36,13 -50,23 -14,10 -26,21 -35,34 -8,14 -15,28 -19,43 -4,16 -7,32 -7,49 0,3 1,7 1,14 0,6 1,10 1,13 3,23 9,43 19,61 9,18 20,33 33,46 13,13 27,24 42,32 15,8 31,14 46,17 13,2 22,3 26,3 17,0 35,-3 52,-10 17,-6 33,-16 46,-29 14,-13 25,-29 33,-47 8,-19 12,-40 12,-63 0,-31 -7,-61 -21,-90 -13,-29 -32,-53 -57,-72 -25,-19 -53,-28 -84,-28 -15,0 -27,2 -38,4l0 0zm-710 80c5,-47 7,-91 7,-132 7,2 11,3 13,3 1,20 2,32 3,34 31,2 85,4 162,5 85,-1 144,-3 178,-5 0,0 2,-6 4,-15 2,-9 3,-15 4,-17 1,-1 3,-1 6,-2 3,0 5,0 7,0 -2,10 -4,23 -6,38 -2,14 -4,33 -7,57 -3,23 -4,36 -4,38 -5,-2 -9,-3 -12,-3 0,-3 0,-9 1,-19 0,-9 0,-17 0,-22l0 -11c-3,-4 -13,-8 -30,-11 -16,-4 -34,-6 -55,-8 -20,-2 -37,-3 -50,-3 -1,4 -1,11 -1,23 -1,12 -1,26 -1,44 -1,17 -1,38 -1,62 1,123 2,188 3,195 29,4 51,6 66,7l2 11c-9,-1 -39,-2 -91,-2 -21,0 -42,0 -63,1 -21,0 -37,1 -48,1l4 -10c3,-1 14,-2 32,-4 19,-2 30,-3 33,-4 2,-64 3,-123 3,-177 0,-68 -1,-117 -3,-147 -66,0 -111,7 -133,21 -2,3 -4,11 -7,24 -2,12 -4,21 -5,24 0,1 -1,1 -5,2 -3,1 -5,2 -6,2l0 0zm-181 4l-12 -5c0,-13 -1,-27 -2,-39 -6,-16 -16,-27 -29,-35 -13,-8 -27,-12 -42,-12 -15,0 -28,4 -40,12 -12,9 -18,19 -20,33 0,17 5,30 16,40 11,10 31,24 59,43 28,18 49,37 63,54 14,18 21,40 21,67l0 15c-2,23 -9,42 -22,56 -13,15 -28,26 -47,32 -19,7 -40,11 -61,11 -23,0 -46,-5 -68,-13 -1,2 -4,20 -11,54l-12 3c2,-9 4,-28 7,-57 2,-28 4,-58 4,-88 0,-2 0,-6 -1,-11 0,-5 0,-9 0,-11l12 3c0,2 0,4 -1,6 1,12 2,25 4,39 8,18 19,32 34,42 15,10 31,15 48,16 12,-1 24,-4 35,-9 11,-6 20,-14 27,-24 6,-9 10,-20 10,-33 0,-32 -22,-60 -66,-85 -17,-10 -32,-20 -44,-30 -12,-11 -22,-21 -29,-32 -7,-10 -11,-20 -14,-30 -3,-11 -5,-21 -5,-32 1,-15 5,-30 13,-43 8,-13 21,-24 37,-32 17,-8 37,-12 60,-12 20,0 42,3 67,9 3,-11 6,-25 9,-42l12 -1c-8,64 -12,111 -12,141l0 0zm-626 -107c7,-1 16,-1 28,-1 30,0 58,4 83,13 25,9 46,21 63,37 18,16 31,34 40,55 10,21 14,44 14,69 0,19 -1,35 -5,48 -7,30 -20,56 -38,80 -19,23 -43,42 -73,55 -29,14 -63,22 -100,23 -39,0 -73,-5 -101,-17 -29,-12 -51,-27 -68,-45 -17,-19 -30,-38 -37,-58 -8,-20 -12,-40 -13,-58 1,-2 1,-4 1,-7 2,-25 7,-48 16,-70 9,-22 22,-42 38,-59 17,-18 38,-32 64,-44 25,-11 55,-18 88,-21l0 0zm-34 23c-19,5 -36,13 -50,23 -14,10 -26,21 -35,34 -8,14 -15,28 -19,43 -4,16 -7,32 -7,49 0,3 1,7 1,14 0,6 1,10 1,13 3,23 9,43 19,61 9,18 20,33 33,46 13,13 27,24 42,32 15,8 31,14 46,17 13,2 22,3 26,3 17,0 35,-3 52,-10 17,-6 33,-16 46,-29 14,-13 25,-29 33,-47 8,-19 12,-40 12,-63 0,-31 -7,-61 -21,-90 -13,-29 -32,-53 -57,-72 -25,-19 -53,-28 -84,-28 -15,0 -27,2 -38,4l0 0z"/>
  </g>
 </g>
</svg>
